# xmcd
# 
# Track frame offsets:
#     150
#     19139
#     38498
#     63605
#     82847
#     120830
#     140138
#     164094
#     184483
#     208421
#     230326
#     240795
#     256741
#     272901
#     293922
#     315662
#     335582
# 
# Disc length: 4762
# 
# Revision: 2
# Processed by: cddbd v1.5.2PL0 Copyright (c) Steve Scherf et al.
# Submitted via: fre:ac v1.0.31
# 
DISCID=f6129811
DTITLE=B. B. King - Ladies and Gentlemen...Mr. B.B. King, Disc 4
DYEAR=2012
DGENRE=Blues
TTITLE0=Into The Night 1985
TTITLE1=When Love Comes to Town 1988
TTITLE2=Take Off Your Shoes 1989
TTITLE3=I'm Moving on 1989
TTITLE4=There is Always One More Time 1991
TTITLE5=Monday Morning Blues (Blues For mr. g) 1991
TTITLE6=Playin' With my Friends 1993
TTITLE7=Confessin' The Blues 1997
TTITLE8=Blues Man 1998
TTITLE9=I'll Survive 1998
TTITLE10=Caldonia 1999
TTITLE11=Ain't That Just Like a Woman 1999
TTITLE12=Monday Woman 2000
TTITLE13=Ten Long Years 2000
TTITLE14=Early in The Morning 2005
TTITLE15=Key to The Highway 2006
TTITLE16=See That my Grave is Kept Clean 2008
EXTD=
EXTT0=
EXTT1=
EXTT2=
EXTT3=
EXTT4=
EXTT5=
EXTT6=
EXTT7=
EXTT8=
EXTT9=
EXTT10=
EXTT11=
EXTT12=
EXTT13=
EXTT14=
EXTT15=
EXTT16=
PLAYORDER=
